<svg width="144" height="27" viewBox="0 0 144 27" xmlns="http://www.w3.org/2000/svg"><title>Launch Stack</title><defs><linearGradient x1="50%" y1="0%" x2="50%" y2="100%" id="a"><stop stop-color="#FFE4B2" offset="0%"/><stop stop-color="#F79800" offset="100%"/></linearGradient><linearGradient x1="45.017%" y1="100%" x2="68.082%" y2="3.32%" id="b"><stop stop-color="#151443" offset="0%"/><stop stop-color="#6D80B2" offset="100%"/></linearGradient></defs><g fill="none" fill-rule="evenodd"><path d="M2 5v17c0 1.66 1.34 3 3 3h125.5c6.348 0 11.5-5.15 11.5-11.5C142 7.148 136.852 2 130.5 2H5C3.34 2 2 3.34 2 5z" fill="url(#a)"/><path d="M2 5v17c0 1.66 1.34 3 3 3h125.5c6.348 0 11.5-5.15 11.5-11.5C142 7.148 136.852 2 130.5 2H5C3.34 2 2 3.34 2 5zM0 5c0-2.762 2.233-5 5-5h125.5c7.456 0 13.5 6.043 13.5 13.5 0 7.456-6.05 13.5-13.5 13.5H5c-2.762 0-5-2.232-5-5V5z" fill="#0058A5"/><circle fill="url(#b)" cx="129.5" cy="13.5" r="9.5"/><path fill="#FFF" d="M133 13.5l-5 4.5V9"/><path d="M18.136 19h6.4v-1.648h-4.432V8.216h-1.968V19zm14.068 0c-.08-.48-.112-1.168-.112-1.872v-2.816c0-1.696-.72-3.28-3.216-3.28-1.232 0-2.24.336-2.816.688l.384 1.28c.528-.336 1.328-.576 2.096-.576 1.376 0 1.584.848 1.584 1.36v.128c-2.88-.016-4.624.976-4.624 2.944 0 1.184.88 2.32 2.448 2.32 1.008 0 1.824-.432 2.304-1.04h.048l.128.864h1.776zm-2.032-2.736c0 .128-.016.288-.064.432-.176.56-.752 1.072-1.536 1.072-.624 0-1.12-.352-1.12-1.12 0-1.184 1.328-1.488 2.72-1.456v1.072zm11.076-5.056H39.28v4.704c0 .224-.048.432-.112.608-.208.496-.72 1.056-1.504 1.056-1.04 0-1.456-.832-1.456-2.128v-4.24H34.24v4.576c0 2.544 1.296 3.392 2.72 3.392 1.392 0 2.16-.8 2.496-1.36h.032L39.584 19h1.728c-.032-.64-.064-1.408-.064-2.336v-5.456zM43.476 19h1.984v-4.576c0-.224.016-.464.08-.64.208-.592.752-1.152 1.536-1.152 1.072 0 1.488.848 1.488 1.968V19h1.968v-4.624c0-2.464-1.408-3.344-2.768-3.344-1.296 0-2.144.736-2.48 1.344h-.048l-.096-1.168h-1.728c.048.672.064 1.424.064 2.32V19zm14.708-1.696c-.384.16-.864.304-1.552.304-1.344 0-2.384-.912-2.384-2.512-.016-1.424.88-2.528 2.384-2.528.704 0 1.168.16 1.488.304l.352-1.472c-.448-.208-1.184-.368-1.904-.368-2.736 0-4.336 1.824-4.336 4.16 0 2.416 1.584 3.968 4.016 3.968.976 0 1.792-.208 2.208-.4l-.272-1.456zM60.012 19h1.984v-4.656c0-.224.016-.432.08-.592.208-.592.752-1.104 1.52-1.104 1.088 0 1.504.848 1.504 1.984V19h1.968v-4.592c0-2.496-1.392-3.376-2.72-3.376-.496 0-.96.128-1.344.352-.416.224-.736.528-.976.896h-.032V7.64h-1.984V19zm12.264-.512c.592.352 1.776.672 2.912.672 2.784 0 4.096-1.504 4.096-3.232 0-1.552-.912-2.496-2.784-3.2-1.44-.56-2.064-.944-2.064-1.776 0-.624.544-1.296 1.792-1.296 1.008 0 1.76.304 2.144.512l.48-1.584c-.56-.288-1.424-.544-2.592-.544-2.336 0-3.808 1.344-3.808 3.104 0 1.552 1.136 2.496 2.912 3.136 1.376.496 1.92.976 1.92 1.792 0 .88-.704 1.472-1.968 1.472-1.008 0-1.968-.32-2.608-.688l-.432 1.632zm9.076-9.04v1.76h-1.12v1.472h1.12v3.664c0 1.024.192 1.728.608 2.176.368.4.976.64 1.696.64.624 0 1.136-.08 1.424-.192l-.032-1.504c-.176.048-.432.096-.768.096-.752 0-1.008-.496-1.008-1.44v-3.44h1.872v-1.472h-1.872V8.984l-1.92.464zM92.892 19c-.08-.48-.112-1.168-.112-1.872v-2.816c0-1.696-.72-3.28-3.216-3.28-1.232 0-2.24.336-2.816.688l.384 1.28c.528-.336 1.328-.576 2.096-.576 1.376 0 1.584.848 1.584 1.36v.128c-2.88-.016-4.624.976-4.624 2.944 0 1.184.88 2.32 2.448 2.32 1.008 0 1.824-.432 2.304-1.04h.048l.128.864h1.776zm-2.032-2.736c0 .128-.016.288-.064.432-.176.56-.752 1.072-1.536 1.072-.624 0-1.12-.352-1.12-1.12 0-1.184 1.328-1.488 2.72-1.456v1.072zm9.556 1.04c-.384.16-.864.304-1.552.304-1.344 0-2.384-.912-2.384-2.512-.016-1.424.88-2.528 2.384-2.528.704 0 1.168.16 1.488.304l.352-1.472c-.448-.208-1.184-.368-1.904-.368-2.736 0-4.336 1.824-4.336 4.16 0 2.416 1.584 3.968 4.016 3.968.976 0 1.792-.208 2.208-.4l-.272-1.456zm3.796-9.664h-1.968V19h1.968v-2.656l.672-.784 2.24 3.44h2.416l-3.296-4.608 2.88-3.184h-2.368l-1.888 2.512c-.208.272-.432.608-.624.912h-.032V7.64z" fill="#000"/></g></svg>